<svg xmlns="http://www.w3.org/2000/svg" width="20" height="20" viewBox="0 0 20 20" fill="none">
<path d="M17.9163 9.08317V3.4165C17.9163 2.1665 17.383 1.6665 16.058 1.6665H12.6913C11.3663 1.6665 10.833 2.1665 10.833 3.4165V9.08317C10.833 10.3332 11.3663 10.8332 12.6913 10.8332H16.058C17.383 10.8332 17.9163 10.3332 17.9163 9.08317Z" fill="#2C3E50"/>
<path d="M9.16634 10.9165V16.5832C9.16634 17.8332 8.63301 18.3332 7.30801 18.3332H3.94134C2.61634 18.3332 2.08301 17.8332 2.08301 16.5832V10.9165C2.08301 9.6665 2.61634 9.1665 3.94134 9.1665H7.30801C8.63301 9.1665 9.16634 9.6665 9.16634 10.9165Z" fill="#2C3E50"/>
<path d="M17.9163 16.5833V14.25C17.9163 13 17.383 12.5 16.058 12.5H12.6913C11.3663 12.5 10.833 13 10.833 14.25V16.5833C10.833 17.8333 11.3663 18.3333 12.6913 18.3333H16.058C17.383 18.3333 17.9163 17.8333 17.9163 16.5833Z" fill="#2C3E50"/>
<path d="M9.16634 5.74984V3.4165C9.16634 2.1665 8.63301 1.6665 7.30801 1.6665H3.94134C2.61634 1.6665 2.08301 2.1665 2.08301 3.4165V5.74984C2.08301 6.99984 2.61634 7.49984 3.94134 7.49984H7.30801C8.63301 7.49984 9.16634 6.99984 9.16634 5.74984Z" fill="#2C3E50"/>
</svg>