<svg xmlns="http://www.w3.org/2000/svg" width="20" height="20" viewBox="0 0 20 20" fill="none">
<path d="M16.5724 10.4423L17.7024 11.4485C17.9111 11.6227 18.0505 11.8657 18.0954 12.1338C18.1404 12.4018 18.0878 12.6771 17.9474 12.9098L16.5849 15.2373C16.4792 15.4154 16.3282 15.5625 16.1474 15.6635C15.9644 15.7648 15.759 15.8185 15.5499 15.8198C15.4202 15.8206 15.2911 15.8012 15.1674 15.7623L13.7211 15.2848C13.4678 15.4473 13.2045 15.5927 12.9311 15.721L12.6274 17.1873C12.5712 17.457 12.421 17.698 12.2036 17.8673C11.9835 18.0396 11.7106 18.1306 11.4311 18.1248H8.60988C8.3304 18.1306 8.0575 18.0396 7.83738 17.8673C7.62048 17.6978 7.47077 17.4568 7.41488 17.1873L7.10988 15.721C6.84013 15.591 6.57841 15.4449 6.32613 15.2835L4.87488 15.7623C4.75114 15.8012 4.62209 15.8206 4.49238 15.8198C4.28371 15.8183 4.07872 15.7646 3.89613 15.6635C3.71543 15.5628 3.56451 15.4162 3.45863 15.2385L2.04738 12.9098C1.90067 12.675 1.84461 12.3948 1.88971 12.1216C1.93481 11.8485 2.07798 11.6012 2.29238 11.426L3.42113 9.99977V9.55727L2.29113 8.55102C2.08246 8.37689 1.94303 8.1338 1.89809 7.86576C1.85315 7.59772 1.90567 7.32244 2.04613 7.08977L3.45738 4.76227C3.56309 4.5841 3.71402 4.43705 3.89488 4.33602C4.07747 4.23498 4.28246 4.18127 4.49113 4.17977C4.61968 4.17166 4.7487 4.18347 4.87363 4.21477L6.29613 4.71477C6.5503 4.55227 6.81363 4.40685 7.08613 4.27852L7.39113 2.81227C7.44701 2.54273 7.59673 2.30177 7.81363 2.13227C8.03375 1.95995 8.30665 1.86899 8.58613 1.87477H11.3836C11.6631 1.86899 11.936 1.95995 12.1561 2.13227C12.3749 2.30352 12.5249 2.54477 12.5786 2.81227L12.8836 4.27852C13.1545 4.40769 13.4157 4.55352 13.6674 4.71602L15.1199 4.23852C15.2811 4.18608 15.4514 4.16767 15.6201 4.18445C15.7888 4.20123 15.9522 4.25285 16.0999 4.33602C16.2811 4.43852 16.4311 4.58602 16.5374 4.76102L17.9474 7.08977C18.0961 7.32255 18.155 7.60148 18.1131 7.8745C18.0713 8.14752 17.9315 8.39599 17.7199 8.57352L16.5724 9.55102V10.4423Z" stroke="white" stroke-width="1.25"/>
<path d="M13.125 10C13.125 10.8288 12.7958 11.6237 12.2097 12.2097C11.6237 12.7958 10.8288 13.125 10 13.125C9.1712 13.125 8.37634 12.7958 7.79029 12.2097C7.20424 11.6237 6.875 10.8288 6.875 10C6.875 9.1712 7.20424 8.37634 7.79029 7.79029C8.37634 7.20424 9.1712 6.875 10 6.875C10.8288 6.875 11.6237 7.20424 12.2097 7.79029C12.7958 8.37634 13.125 9.1712 13.125 10Z" stroke="white" stroke-width="1.25"/>
</svg>