<svg xmlns="http://www.w3.org/2000/svg" width="48" height="49" viewBox="0 0 48 49" fill="none">
<rect y="0.5" width="48" height="48" rx="24" fill="white"/>
<path d="M24.0186 15.4102C20.7086 15.4102 18.0186 18.1002 18.0186 21.4102V24.3002C18.0186 24.9102 17.7586 25.8402 17.4486 26.3602L16.2986 28.2702C15.5886 29.4502 16.0786 30.7602 17.3786 31.2002C21.6886 32.6402 26.3386 32.6402 30.6486 31.2002C31.8586 30.8002 32.3886 29.3702 31.7286 28.2702L30.5786 26.3602C30.2786 25.8402 30.0186 24.9102 30.0186 24.3002V21.4102C30.0186 18.1102 27.3186 15.4102 24.0186 15.4102Z" stroke="#4A4A4A" stroke-width="1.5" stroke-miterlimit="10" stroke-linecap="round"/>
<path d="M25.8719 15.7014C25.5619 15.6114 25.2419 15.5414 24.9119 15.5014C23.9519 15.3814 23.0319 15.4514 22.1719 15.7014C22.4619 14.9614 23.1819 14.4414 24.0219 14.4414C24.8619 14.4414 25.5819 14.9614 25.8719 15.7014Z" stroke="#4A4A4A" stroke-width="1.5" stroke-miterlimit="10" stroke-linecap="round" stroke-linejoin="round"/>
<path d="M27.0195 31.5586C27.0195 33.2086 25.6695 34.5586 24.0195 34.5586C23.1995 34.5586 22.4395 34.2186 21.8995 33.6786C21.3595 33.1386 21.0195 32.3786 21.0195 31.5586" stroke="#4A4A4A" stroke-width="1.5" stroke-miterlimit="10"/>
<circle cx="30" cy="16.5" r="4" fill="#E82124"/>
</svg>