<svg xmlns="http://www.w3.org/2000/svg" width="16" height="16" viewBox="0 0 16 16" fill="none">
<path d="M14.3587 8.5775L13.8587 8.15625V5.27625H14.3587V8.5775ZM15.73 4.4275L14.9162 2.52625C14.8967 2.48143 14.8646 2.44326 14.8238 2.4164C14.7829 2.38955 14.7351 2.37516 14.6862 2.375H13.5312C13.4825 2.37502 13.4348 2.38937 13.3941 2.41626C13.3535 2.44315 13.3216 2.4814 13.3025 2.52625L12.4887 4.4275C12.4725 4.46556 12.4659 4.50706 12.4696 4.54828C12.4733 4.58951 12.4872 4.62917 12.51 4.66372C12.5328 4.69827 12.5638 4.72663 12.6002 4.74627C12.6366 4.76591 12.6774 4.77621 12.7187 4.77625H15.5C15.5414 4.77621 15.5821 4.76591 15.6186 4.74627C15.655 4.72663 15.686 4.69827 15.7088 4.66372C15.7316 4.62917 15.7454 4.58951 15.7491 4.54828C15.7528 4.50706 15.7463 4.46556 15.73 4.4275ZM4.0375 7.325V7.0575C4.03793 6.87994 4.10866 6.70977 4.23421 6.58421C4.35977 6.45866 4.52994 6.38793 4.7075 6.3875H6.29375C6.47137 6.38773 6.64166 6.4584 6.76725 6.58399C6.89285 6.70959 6.96352 6.87988 6.96375 7.0575V7.325H8.03625V7.0575C8.03648 6.87988 8.10714 6.70959 8.23274 6.58399C8.35834 6.4584 8.52863 6.38773 8.70625 6.3875H10.2925C10.4701 6.38793 10.6402 6.45866 10.7658 6.58421C10.8913 6.70977 10.9621 6.87994 10.9625 7.0575V7.325H12.25V6.0175C12.2495 5.65198 12.1041 5.30158 11.8456 5.04312C11.5872 4.78467 11.2368 4.63925 10.8712 4.63875H4.12875C3.76323 4.63925 3.41283 4.78467 3.15437 5.04312C2.89592 5.30158 2.7505 5.65198 2.75 6.0175V7.325H4.0375ZM13.8137 9.425H14.5912L14.3587 9.23L13.8587 8.81L12.6862 7.825H2.31375L0.40875 9.425H13.8137ZM1.375 12.7863H0.875V13.375C0.875198 13.4412 0.901601 13.5047 0.948442 13.5516C0.995283 13.5984 1.05876 13.6248 1.125 13.625H2.3425C2.40874 13.6248 2.47222 13.5984 2.51906 13.5516C2.5659 13.5047 2.5923 13.4412 2.5925 13.375V12.7863H1.375ZM12.9075 12.7863H12.4075V13.375C12.4077 13.4412 12.4341 13.5047 12.4809 13.5516C12.5278 13.5984 12.5913 13.6248 12.6575 13.625H13.875C13.9412 13.6248 14.0047 13.5984 14.0516 13.5516C14.0984 13.5047 14.1248 13.4412 14.125 13.375V12.7863H12.9075ZM0.75 9.925H0.25V12.0363C0.250198 12.1025 0.276601 12.166 0.323442 12.2128C0.370283 12.2597 0.433757 12.2861 0.5 12.2863H14.5C14.5662 12.2861 14.6297 12.2597 14.6766 12.2128C14.7234 12.166 14.7498 12.1025 14.75 12.0363V9.925H0.75Z" fill="#121A22"/>
</svg>