<svg
                                    class="w-4 h-4 mr-1"
                                    xmlns="http://www.w3.org/2000/svg"
                                    width="17"
                                    height="16"
                                    viewBox="0 0 17 16"
                                    fill="none">
                                    <g clip-path="url(#clip0_278_10737)">
                                        <path
                                            d="M16.1867 13.6465L14.6867 12.1465C14.3714 11.8312 13.8334 12.0558 13.8334 12.4998V13.3332H3.00005V2.49983H3.83338C4.27938 2.49983 4.50138 1.95983 4.18672 1.6465L2.68672 0.1465C2.49138 -0.0488333 2.17472 -0.0488333 1.97938 0.1465L0.480049 1.6465C0.166049 1.95983 0.388049 2.49983 0.833383 2.49983H1.66672V13.3332H1.00005C0.631383 13.3332 0.333383 13.6318 0.333383 13.9998C0.333383 14.3678 0.631383 14.6665 1.00005 14.6665H1.66672V15.3332C1.66672 15.7012 1.96472 15.9998 2.33338 15.9998C2.70205 15.9998 3.00005 15.7012 3.00005 15.3332V14.6665H13.8334V15.4998C13.8334 15.9458 14.3741 16.1658 14.6867 15.8532L16.1867 14.3532C16.3821 14.1578 16.3821 13.8418 16.1867 13.6465Z"
                                            fill="#121A22" />
                                        <path
                                            d="M9.00016 2.66602L13.6668 4.66602L9.00016 6.66602L4.3335 4.66602L9.00016 2.66602Z"
                                            fill="#121A22" />
                                        <path
                                            d="M8.3335 7.83119L4.3335 6.11719V9.99985C4.3335 10.1379 4.41816 10.2619 4.54683 10.3112L8.3335 11.7672V7.83119Z"
                                            fill="#121A22" />
                                        <path
                                            d="M9.66699 7.83119V11.7672L13.4537 10.3105C13.5823 10.2619 13.667 10.1379 13.667 9.99985V6.11719L9.66699 7.83119Z"
                                            fill="#121A22" />
                                    </g>
                                    <defs>
                                        <clipPath id="clip0_278_10737">
                                            <rect
                                                width="16"
                                                height="16"
                                                fill="white"
                                                transform="translate(0.333496)" />
                                        </clipPath>
                                    </defs>
                                </svg>