<svg xmlns="http://www.w3.org/2000/svg" width="17" height="16" viewBox="0 0 17 16" fill="none">
<g clip-path="url(#clip0_278_10728)">
<path d="M2.65154 15.2716C2.50792 15.487 2.56614 15.7781 2.78154 15.9217C2.86148 15.9749 2.95179 16.0004 3.04114 16.0004C3.19261 16.0004 3.34126 15.9271 3.43157 15.7916L3.78882 15.2558C3.49964 15.1288 3.22411 14.9764 2.96542 14.8008L2.65154 15.2716Z" fill="#121A22"/>
<path d="M14.3678 14.8008C14.1092 14.9764 13.8337 15.1288 13.5444 15.2558L13.9017 15.7916C13.992 15.9271 14.1406 16.0004 14.2921 16.0004C14.3815 16.0004 14.4718 15.9749 14.5517 15.9217C14.7672 15.7781 14.8253 15.487 14.6817 15.2716L14.3678 14.8008Z" fill="#121A22"/>
<path d="M1.63525 9.06738V10.5317C1.63525 12.8579 3.52779 14.7504 5.854 14.7504H11.479C13.8052 14.7504 15.6978 12.8579 15.6978 10.5317V10.2588H7.95219C5.77304 10.2588 3.65185 9.85807 1.63525 9.06738Z" fill="#121A22"/>
<path d="M3.19775 5.52466V1.71875C3.19775 1.28797 3.54822 0.9375 3.979 0.9375H4.604C5.03479 0.9375 5.38525 1.28797 5.38525 1.71875V1.94116C4.66063 2.14994 4.13525 2.83 4.13525 3.61984V3.75C4.13525 4.00887 4.34513 4.21875 4.604 4.21875H7.104C7.36288 4.21875 7.57275 4.00887 7.57275 3.75V3.59375C7.57275 2.80853 7.04329 2.145 6.32275 1.94041V1.71875C6.32275 0.771031 5.55172 0 4.604 0H3.979C3.03129 0 2.26025 0.771031 2.26025 1.71875V5.14825C2.33407 5.17094 2.40694 5.19759 2.47847 5.22931C2.71625 5.335 2.9561 5.43328 3.19775 5.52466Z" fill="#121A22"/>
<path d="M15.6391 7.32912H7.95227C5.92217 7.32912 3.95302 6.91115 2.09867 6.08693C1.59511 5.86387 1.00727 6.08987 0.783859 6.59243C0.560453 7.09502 0.786765 7.68384 1.28936 7.90724C3.4002 8.84562 5.6417 9.32127 7.9523 9.32127H15.6392C16.1895 9.32127 16.6353 8.87543 16.6353 8.32518C16.6352 7.77493 16.1894 7.32912 15.6391 7.32912Z" fill="#121A22"/>
</g>
<defs>
<clipPath id="clip0_278_10728">
<rect width="16" height="16" fill="white" transform="translate(0.666504)"/>
</clipPath>
</defs>
</svg>