<svg xmlns="http://www.w3.org/2000/svg" width="44" height="44" viewBox="0 0 44 44" fill="none">
<rect width="44" height="44" rx="22" fill="#2C3E50"/>
<g clip-path="url(#clip0_236_1448)">
<path d="M30.492 30.9564L27.5294 32.6675C26.5338 33.2426 25.4646 33.5302 24.3958 33.5302C23.3267 33.5303 22.258 33.2427 21.2621 32.6675L14.5231 28.7776C14.2242 28.6049 14.0102 28.325 13.9204 27.9896C13.8306 27.6542 13.8763 27.3049 14.0489 27.006C14.4431 26.3227 15.0625 25.8291 15.7928 25.6165C16.5372 25.3998 17.3242 25.4983 18.0087 25.894L19.915 26.9943L14.0286 16.7984C13.7683 16.347 13.6997 15.8196 13.8353 15.3132C13.9711 14.8063 14.2947 14.384 14.7465 14.1239C15.1969 13.8633 15.7246 13.7944 16.2314 13.9301C16.738 14.0658 17.1607 14.3889 17.4217 14.84L20.1441 19.5568C20.2948 19.0977 20.6038 18.7162 21.0233 18.4747C21.7332 18.0648 22.5966 18.1517 23.2075 18.6269C23.322 18.1082 23.6451 17.6374 24.1398 17.3517C24.9329 16.8952 25.9157 17.0567 26.5255 17.6851C26.664 17.2465 26.9563 16.8815 27.3555 16.6515C27.7766 16.4075 28.2697 16.3426 28.7434 16.4692C29.2179 16.596 29.6137 16.8988 29.8579 17.3218L32.7869 22.3944C34.5145 25.3885 33.485 29.2294 30.492 30.9564V30.9564ZM13.7532 12.4046C15.6383 11.3166 18.0572 11.9646 19.1456 13.8492C19.3648 14.2285 19.5184 14.6383 19.6022 15.0673C19.6765 15.4485 20.0456 15.6972 20.4269 15.6229C20.8081 15.5485 21.0568 15.1793 20.9824 14.7981C20.8689 14.2158 20.6605 13.6597 20.3632 13.1457C18.8873 10.5899 15.6067 9.71112 13.0501 11.1867C10.4944 12.6626 9.61558 15.9432 11.0906 18.4987C11.3875 19.0149 11.7649 19.4735 12.2124 19.8619C12.3454 19.9774 12.5095 20.034 12.673 20.034C12.8696 20.034 13.0653 19.9519 13.2043 19.7917C13.4588 19.4984 13.4274 19.0543 13.1341 18.7998C12.8055 18.5146 12.5281 18.1774 12.3091 17.7967C11.2211 15.9117 11.869 13.4928 13.7532 12.4047V12.4046Z" fill="white"/>
</g>
<defs>
<clipPath id="clip0_236_1448">
<rect width="24" height="24" fill="white" transform="translate(10 10)"/>
</clipPath>
</defs>
</svg>