<svg xmlns="http://www.w3.org/2000/svg" width="44" height="44" viewBox="0 0 44 44" fill="none">
<rect width="44" height="44" rx="22" fill="#2C3E50"/>
<g clip-path="url(#clip0_236_1469)">
<path d="M22.0014 10.751C19.1063 10.751 16.7499 13.1044 16.7499 15.9995C16.7499 18.8946 19.1063 21.251 22.0014 21.251C24.8964 21.251 27.2499 18.8946 27.2499 15.9995C27.2499 13.1044 24.8964 10.751 22.0014 10.751ZM21.9999 12.248C22.1875 12.248 22.3749 12.3729 22.3749 12.623V13.4309C23.0185 13.5992 23.4985 14.1838 23.4985 14.8782C23.4996 14.9281 23.4907 14.9778 23.4723 15.0242C23.454 15.0707 23.4266 15.113 23.3916 15.1488C23.3567 15.1845 23.315 15.2129 23.2689 15.2322C23.2229 15.2516 23.1734 15.2616 23.1235 15.2616C23.0735 15.2616 23.0241 15.2516 22.978 15.2322C22.932 15.2129 22.8902 15.1845 22.8553 15.1488C22.8204 15.113 22.7929 15.0707 22.7746 15.0242C22.7562 14.9778 22.7474 14.9281 22.7485 14.8782C22.7485 14.4595 22.4201 14.1274 22.0014 14.1274C21.5827 14.1274 21.2514 14.4595 21.2514 14.8782C21.2514 15.2968 21.5827 15.6282 22.0014 15.6282C22.8254 15.6282 23.4985 16.3042 23.4985 17.1282C23.4985 17.8225 23.0185 18.4071 22.3749 18.5754V19.376C22.3749 19.8761 21.6249 19.8761 21.6249 19.376V18.5747C20.9821 18.4054 20.5007 17.8215 20.5007 17.1282C20.5007 17.0286 20.5402 16.9331 20.6106 16.8627C20.681 16.7924 20.7765 16.7528 20.876 16.7528C20.9756 16.7528 21.0711 16.7924 21.1415 16.8627C21.2119 16.9331 21.2514 17.0286 21.2514 17.1282C21.2514 17.5468 21.5827 17.8789 22.0014 17.8789C22.4201 17.8789 22.7485 17.5468 22.7485 17.1282C22.7485 16.7095 22.4201 16.3781 22.0014 16.3781C21.1774 16.3781 20.5007 15.7021 20.5007 14.8782C20.5007 14.1848 20.9821 13.6009 21.6249 13.4316V12.623C21.6249 12.3729 21.8124 12.248 21.9999 12.248ZM31.5082 20.1992C31.0531 20.1992 30.5969 20.3737 30.2514 20.7192C29.4599 21.5107 28.6684 22.3022 27.8769 23.0937C28.1885 23.5253 28.3749 24.053 28.3749 24.6252C28.3749 26.073 27.1984 27.2495 25.7507 27.2495H21.663C21.1183 27.2984 21.1183 26.4535 21.663 26.5024H25.7507C26.7959 26.5024 27.6249 25.6704 27.6249 24.6252C27.6249 24.2573 27.5176 23.92 27.3378 23.6335C27.0071 23.1114 26.4258 22.7612 25.7507 22.7509L17.8749 22.7517C16.2816 22.7519 15.3968 23.5755 14.6559 24.3147L19.8627 29.5215C19.9432 29.5088 20.0282 29.5002 20.1257 29.5002H26.5007C27.7892 29.5002 28.866 28.8639 29.6288 27.7592C30.4878 26.5153 32.0962 24.1877 32.8068 23.1801C33.0655 22.8134 33.2311 22.3936 33.247 21.957C33.2629 21.5205 33.1119 21.066 32.7651 20.7192C32.4195 20.3737 31.9633 20.1992 31.5082 20.1992ZM13.3749 24.2502C13.2791 24.2501 13.1835 24.2864 13.1105 24.3594L10.8605 26.6101C10.7132 26.7567 10.7132 26.9952 10.8605 27.1418L16.862 33.1404C17.0083 33.2858 17.2445 33.2858 17.3908 33.1404L19.6408 30.8896C19.7862 30.7433 19.7862 30.5071 19.6408 30.3608L13.6393 24.3594C13.5668 24.2868 13.4708 24.2504 13.3749 24.2502Z" fill="white"/>
</g>
<defs>
<clipPath id="clip0_236_1469">
<rect width="24" height="24" fill="white" transform="translate(10 10)"/>
</clipPath>
</defs>
</svg>