<svg xmlns="http://www.w3.org/2000/svg" width="44" height="44" viewBox="0 0 44 44" fill="none">
<rect width="44" height="44" rx="22" fill="#2C3E50"/>
<g clip-path="url(#clip0_236_1462)">
<path d="M33.7941 30.9254L32.1644 29.2957L33.0157 28.6572C33.2432 28.4865 33.3455 28.1957 33.2749 27.9202C33.2044 27.6448 32.9748 27.439 32.6933 27.3987L27.4438 26.6488C26.9793 26.5828 26.5822 26.9811 26.6483 27.4442L27.3983 32.6937C27.4385 32.9752 27.6443 33.2048 27.9198 33.2753C28.1953 33.3461 28.4861 33.2436 28.6567 33.0162L29.2953 32.1648L30.925 33.7945C31.1996 34.0691 31.6447 34.0691 31.9193 33.7945L33.7941 31.9197C34.0687 31.6451 34.0687 31.2 33.7941 30.9254Z" fill="white"/>
<path d="M20.0795 14.4082C16.9523 14.4082 14.4082 16.9523 14.4082 20.0795C14.4082 23.2068 16.9523 25.7509 20.0795 25.7509C23.2068 25.7509 25.7509 23.2068 25.7509 20.0795C25.7509 16.9523 23.2068 14.4082 20.0795 14.4082ZM20.7826 23.3402V23.8292C20.7826 24.2175 20.4678 24.5323 20.0795 24.5323C19.6913 24.5323 19.3765 24.2175 19.3765 23.8292V23.4074H18.9547C18.5664 23.4074 18.2516 23.0926 18.2516 22.7043C18.2516 22.316 18.5664 22.0012 18.9547 22.0012H20.267C20.603 22.0012 20.8763 21.7279 20.8763 21.3919C20.8763 21.056 20.603 20.7826 20.267 20.7826H19.8921C18.7808 20.7826 17.8766 19.8785 17.8766 18.7672C17.8766 17.8341 18.5142 17.0473 19.3765 16.8189V16.3299C19.3765 15.9416 19.6913 15.6268 20.0795 15.6268C20.4678 15.6268 20.7826 15.9416 20.7826 16.3299V16.7517H21.2044C21.5927 16.7517 21.9075 17.0665 21.9075 17.4548C21.9075 17.8431 21.5927 18.1579 21.2044 18.1579H19.8921C19.5561 18.1579 19.2827 18.4312 19.2827 18.7672C19.2827 19.1031 19.5561 19.3765 19.8921 19.3765H20.267C21.3783 19.3765 22.2825 20.2806 22.2825 21.3919C22.2825 22.325 21.6449 23.1119 20.7826 23.3402Z" fill="white"/>
<path d="M27.3448 25.2352C27.5453 25.2352 27.5663 25.2455 28.6418 25.3991C31.0263 21.5772 30.6347 16.3834 27.2051 12.9538C23.2669 9.01562 16.8925 9.0152 12.9538 12.9538C9.01562 16.892 9.0152 23.2664 12.9538 27.2051C16.3829 30.6342 21.5766 31.0267 25.3991 28.6418L25.2564 27.6427C25.0758 26.3767 26.0563 25.2352 27.3448 25.2352ZM20.0795 27.1569C16.1769 27.1569 13.002 23.982 13.002 20.0794C13.002 16.1769 16.1769 13.002 20.0795 13.002C23.982 13.002 27.1569 16.1769 27.1569 20.0794C27.1569 23.982 23.982 27.1569 20.0795 27.1569Z" fill="white"/>
</g>
<defs>
<clipPath id="clip0_236_1462">
<rect width="24" height="24" fill="white" transform="translate(10 10)"/>
</clipPath>
</defs>
</svg>