<svg xmlns="http://www.w3.org/2000/svg" width="24" height="25" viewBox="0 0 24 25" fill="none">
<rect y="0.5" width="24" height="24" rx="12" fill="#FAF9F8"/>
<path d="M14.7716 7.57602V6.66602C14.7716 6.42685 14.5733 6.22852 14.3341 6.22852C14.095 6.22852 13.8966 6.42685 13.8966 6.66602V7.54102H10.105V6.66602C10.105 6.42685 9.90662 6.22852 9.66745 6.22852C9.42828 6.22852 9.22995 6.42685 9.22995 6.66602V7.57602C7.65495 7.72185 6.89078 8.66102 6.77412 10.0552C6.76245 10.2243 6.90245 10.3643 7.06578 10.3643H16.9358C17.1049 10.3643 17.2449 10.2185 17.2274 10.0552C17.1108 8.66102 16.3466 7.72185 14.7716 7.57602Z" fill="#292D32"/>
<path d="M16.6667 11.2402H7.33333C7.0125 11.2402 6.75 11.5027 6.75 11.8236V15.4169C6.75 17.1669 7.625 18.3336 9.66667 18.3336H14.3333C16.375 18.3336 17.25 17.1669 17.25 15.4169V11.8236C17.25 11.5027 16.9875 11.2402 16.6667 11.2402ZM10.3725 16.1227C10.3433 16.1461 10.3142 16.1752 10.285 16.1927C10.25 16.2161 10.215 16.2336 10.18 16.2452C10.145 16.2627 10.11 16.2744 10.075 16.2802C10.0342 16.2861 9.99917 16.2919 9.95833 16.2919C9.8825 16.2919 9.80667 16.2744 9.73667 16.2452C9.66083 16.2161 9.6025 16.1752 9.54417 16.1227C9.43917 16.0119 9.375 15.8602 9.375 15.7086C9.375 15.5569 9.43917 15.4052 9.54417 15.2944C9.6025 15.2419 9.66083 15.2011 9.73667 15.1719C9.84167 15.1252 9.95833 15.1136 10.075 15.1369C10.11 15.1427 10.145 15.1544 10.18 15.1719C10.215 15.1836 10.25 15.2011 10.285 15.2244C10.3142 15.2477 10.3433 15.2711 10.3725 15.2944C10.4775 15.4052 10.5417 15.5569 10.5417 15.7086C10.5417 15.8602 10.4775 16.0119 10.3725 16.1227ZM10.3725 14.0811C10.2617 14.1861 10.11 14.2502 9.95833 14.2502C9.80667 14.2502 9.655 14.1861 9.54417 14.0811C9.43917 13.9702 9.375 13.8186 9.375 13.6669C9.375 13.5152 9.43917 13.3636 9.54417 13.2527C9.7075 13.0894 9.96417 13.0369 10.18 13.1302C10.2558 13.1594 10.32 13.2002 10.3725 13.2527C10.4775 13.3636 10.5417 13.5152 10.5417 13.6669C10.5417 13.8186 10.4775 13.9702 10.3725 14.0811ZM12.4142 16.1227C12.3033 16.2277 12.1517 16.2919 12 16.2919C11.8483 16.2919 11.6967 16.2277 11.5858 16.1227C11.4808 16.0119 11.4167 15.8602 11.4167 15.7086C11.4167 15.5569 11.4808 15.4052 11.5858 15.2944C11.8017 15.0786 12.1983 15.0786 12.4142 15.2944C12.5192 15.4052 12.5833 15.5569 12.5833 15.7086C12.5833 15.8602 12.5192 16.0119 12.4142 16.1227ZM12.4142 14.0811C12.385 14.1044 12.3558 14.1277 12.3267 14.1511C12.2917 14.1744 12.2567 14.1919 12.2217 14.2036C12.1867 14.2211 12.1517 14.2327 12.1167 14.2386C12.0758 14.2444 12.0408 14.2502 12 14.2502C11.8483 14.2502 11.6967 14.1861 11.5858 14.0811C11.4808 13.9702 11.4167 13.8186 11.4167 13.6669C11.4167 13.5152 11.4808 13.3636 11.5858 13.2527C11.6383 13.2002 11.7025 13.1594 11.7783 13.1302C11.9942 13.0369 12.2508 13.0894 12.4142 13.2527C12.5192 13.3636 12.5833 13.5152 12.5833 13.6669C12.5833 13.8186 12.5192 13.9702 12.4142 14.0811ZM14.4558 16.1227C14.345 16.2277 14.1933 16.2919 14.0417 16.2919C13.89 16.2919 13.7383 16.2277 13.6275 16.1227C13.5225 16.0119 13.4583 15.8602 13.4583 15.7086C13.4583 15.5569 13.5225 15.4052 13.6275 15.2944C13.8433 15.0786 14.24 15.0786 14.4558 15.2944C14.5608 15.4052 14.625 15.5569 14.625 15.7086C14.625 15.8602 14.5608 16.0119 14.4558 16.1227ZM14.4558 14.0811C14.4267 14.1044 14.3975 14.1277 14.3683 14.1511C14.3333 14.1744 14.2983 14.1919 14.2633 14.2036C14.2283 14.2211 14.1933 14.2327 14.1583 14.2386C14.1175 14.2444 14.0767 14.2502 14.0417 14.2502C13.89 14.2502 13.7383 14.1861 13.6275 14.0811C13.5225 13.9702 13.4583 13.8186 13.4583 13.6669C13.4583 13.5152 13.5225 13.3636 13.6275 13.2527C13.6858 13.2002 13.7442 13.1594 13.82 13.1302C13.925 13.0836 14.0417 13.0719 14.1583 13.0952C14.1933 13.1011 14.2283 13.1127 14.2633 13.1302C14.2983 13.1419 14.3333 13.1594 14.3683 13.1827C14.3975 13.2061 14.4267 13.2294 14.4558 13.2527C14.5608 13.3636 14.625 13.5152 14.625 13.6669C14.625 13.8186 14.5608 13.9702 14.4558 14.0811Z" fill="#292D32"/>
</svg>