<svg xmlns="http://www.w3.org/2000/svg" width="14" height="15" viewBox="0 0 14 15" fill="none">
<g clip-path="url(#clip0_329_1538)">
<path d="M7 0.527344C3.14587 0.527344 0.0273438 3.64645 0.0273438 7.5C0.0273438 11.3541 3.14639 14.4727 7 14.4727C10.8541 14.4727 13.9727 11.3536 13.9727 7.5C13.9727 3.6459 10.8536 0.527344 7 0.527344ZM2.88403 9.39487C2.67012 9.47075 2.43595 9.35847 2.36039 9.14541C1.35521 6.31159 3.11292 3.20927 6.10559 2.6595C6.32838 2.61859 6.54216 2.766 6.58309 2.9888C6.62402 3.2116 6.47659 3.42537 6.25379 3.4663C3.76009 3.92442 2.2963 6.51032 3.13348 8.87123C3.2092 9.08471 3.09753 9.31915 2.88403 9.39487ZM10.7437 10.695C8.7763 12.9982 5.22126 12.9954 3.25631 10.695C3.10918 10.5227 3.12955 10.2639 3.30179 10.1167C3.47402 9.96963 3.73294 9.98995 3.88002 10.1622C5.52007 12.0822 8.48231 12.0794 10.1199 10.1622C10.2671 9.98995 10.5261 9.96961 10.6982 10.1167C10.8705 10.2639 10.8908 10.5227 10.7437 10.695ZM11.6396 9.14541C11.5638 9.35929 11.3289 9.47053 11.116 9.39487C10.9025 9.31915 10.7908 9.08471 10.8665 8.87123C11.7039 6.50996 10.2395 3.92434 7.74624 3.4663C7.52344 3.42537 7.376 3.2116 7.41694 2.9888C7.45784 2.76598 7.672 2.61854 7.89444 2.6595C10.8872 3.20927 12.6448 6.31167 11.6396 9.14541Z" fill="#292D32"/>
</g>
<defs>
<clipPath id="clip0_329_1538">
<rect width="14" height="14" fill="white" transform="translate(0 0.5)"/>
</clipPath>
</defs>
</svg>