<svg xmlns="http://www.w3.org/2000/svg" width="44" height="44" viewBox="0 0 44 44" fill="none">
<rect width="44" height="44" rx="22" fill="#2C3E50"/>
<path d="M21.13 25.8799C20.88 25.8799 20.63 25.7499 20.49 25.5199C20.28 25.1699 20.39 24.6999 20.75 24.4899L21.64 23.9599V22.8799C21.64 22.4699 21.98 22.1299 22.39 22.1299C22.8 22.1299 23.14 22.4699 23.14 22.8799V24.3799C23.14 24.6399 23 24.8899 22.78 25.0199L21.53 25.7699C21.39 25.8399 21.26 25.8799 21.13 25.8799Z" fill="white"/>
<path d="M31.09 16.9795C30.24 16.0395 28.83 15.5695 26.76 15.5695H26.52V15.5295C26.52 13.8495 26.52 11.7695 22.76 11.7695H21.24C17.48 11.7695 17.48 13.8495 17.48 15.5295V15.5695H17.24C15.17 15.5695 13.75 16.0395 12.91 16.9795C11.92 18.0895 11.95 19.5595 12.05 20.5695L12.06 20.6395L12.1291 21.4455C12.1423 21.5994 12.2259 21.7387 12.3556 21.8227C12.6393 22.0063 12.9411 22.199 13.23 22.3595C13.37 22.4495 13.52 22.5295 13.67 22.6095C14.8 23.2295 16.01 23.7195 17.25 24.0595C17.28 26.6495 19.4 28.7495 22 28.7495C24.62 28.7495 26.75 26.6195 26.75 23.9995V23.9595C28.01 23.5795 29.22 23.0495 30.35 22.3895C30.41 22.3595 30.45 22.3295 30.5 22.2995C30.8949 22.0849 31.3045 21.804 31.6782 21.539C31.7941 21.4568 31.869 21.3288 31.8847 21.1876L31.9 21.0495L31.95 20.5795C31.96 20.5195 31.96 20.4695 31.97 20.3995C32.05 19.3995 32.03 18.0195 31.09 16.9795ZM18.91 15.5295C18.91 13.8295 18.91 13.1895 21.24 13.1895H22.76C25.09 13.1895 25.09 13.8295 25.09 15.5295V15.5695H18.91V15.5295ZM22 27.2495C20.35 27.2495 18.98 26.0095 18.78 24.4095C18.76 24.2795 18.75 24.1395 18.75 23.9995C18.75 22.2095 20.21 20.7495 22 20.7495C23.79 20.7495 25.25 22.2095 25.25 23.9995C25.25 24.1195 25.24 24.2295 25.23 24.3395V24.3495C25.05 25.9795 23.67 27.2495 22 27.2495Z" fill="white"/>
<path d="M31.0401 23.7301C31.2888 23.5919 31.6115 23.7922 31.5856 24.0755L31.2301 27.9601C31.0201 29.9601 30.2001 32.0001 25.8001 32.0001H18.1801C13.7801 32.0001 12.9601 29.9601 12.7601 27.9701L12.4142 24.2668C12.3874 23.9793 12.6949 23.785 12.9501 23.9201C13.7301 24.3501 14.5401 24.7301 15.3701 25.0301C15.6801 25.1401 15.9001 25.4001 15.9901 25.7201C16.7401 28.3201 19.1601 30.2501 22.0001 30.2501C24.8901 30.2501 27.3301 28.2801 28.0401 25.5801C28.1201 25.2601 28.3401 25.0001 28.6501 24.8801C29.4901 24.5501 30.2901 24.1601 31.0401 23.7301Z" fill="white"/>
</svg>