<svg xmlns="http://www.w3.org/2000/svg" width="45" height="44" viewBox="0 0 45 44" fill="none">
<rect x="0.666748" width="44" height="44" rx="22" fill="#2C3E50"/>
<path d="M22.6666 15.5615C17.8287 15.5615 13.4941 18.1425 11.824 21.9998C13.4941 25.8571 17.8291 28.4381 22.6666 28.4381C27.5041 28.4381 31.8391 25.8571 33.5093 21.9998C31.8391 18.1425 27.5041 15.5615 22.6666 15.5615ZM22.6666 26.6573C20.0988 26.6573 18.0096 24.5681 18.0096 22.0003C18.0096 19.4325 20.0988 17.3432 22.6666 17.3432C25.2344 17.3432 27.3237 19.4325 27.3237 22.0003C27.3237 24.5681 25.2344 26.6573 22.6666 26.6573ZM26.5737 22.0003C26.5737 24.1546 24.821 25.9073 22.6666 25.9073C20.5123 25.9073 18.7596 24.1546 18.7596 22.0003C18.7596 19.8459 20.5123 18.0932 22.6666 18.0932C24.821 18.0932 26.5737 19.8459 26.5737 22.0003Z" fill="white"/>
</svg>